<mxfile host="app.diagrams.net" modified="2023-11-15T12:27:16.941Z" agent="Mozilla/5.0 (Windows NT 10.0; Win64; x64) AppleWebKit/537.36 (KHTML, like Gecko) Chrome/117.0.0.0 Safari/537.36" etag="lHR22NjjcBr5D1OcjbqK" version="22.1.1" type="device">
  <diagram name="Page-1" id="pKXF-KH-pKRmVBa582Mh">
    <mxGraphModel dx="1323" dy="785" grid="1" gridSize="10" guides="1" tooltips="1" connect="1" arrows="1" fold="1" page="1" pageScale="1" pageWidth="850" pageHeight="1100" math="0" shadow="0">
      <root>
        <mxCell id="0" />
        <mxCell id="1" parent="0" />
        <mxCell id="9gJAID2LY0s8Rh1VWDW--36" style="edgeStyle=orthogonalEdgeStyle;rounded=0;orthogonalLoop=1;jettySize=auto;html=1;entryX=0.5;entryY=0;entryDx=0;entryDy=0;" edge="1" parent="1" source="9gJAID2LY0s8Rh1VWDW--1" target="9gJAID2LY0s8Rh1VWDW--8">
          <mxGeometry relative="1" as="geometry" />
        </mxCell>
        <mxCell id="9gJAID2LY0s8Rh1VWDW--1" value="" style="rounded=0;whiteSpace=wrap;html=1;fillColor=#ffe6cc;strokeColor=#d79b00;" vertex="1" parent="1">
          <mxGeometry x="135" y="102.5" width="120" height="60" as="geometry" />
        </mxCell>
        <mxCell id="9gJAID2LY0s8Rh1VWDW--2" value="" style="rounded=0;whiteSpace=wrap;html=1;fillColor=#ffe6cc;strokeColor=#d79b00;" vertex="1" parent="1">
          <mxGeometry x="370" y="97.5" width="120" height="60" as="geometry" />
        </mxCell>
        <mxCell id="9gJAID2LY0s8Rh1VWDW--3" value="" style="rounded=0;whiteSpace=wrap;html=1;fillColor=#ffe6cc;strokeColor=#d79b00;" vertex="1" parent="1">
          <mxGeometry x="550" y="100" width="120" height="60" as="geometry" />
        </mxCell>
        <mxCell id="9gJAID2LY0s8Rh1VWDW--55" style="edgeStyle=orthogonalEdgeStyle;rounded=0;orthogonalLoop=1;jettySize=auto;html=1;entryX=0.75;entryY=0;entryDx=0;entryDy=0;" edge="1" parent="1" source="9gJAID2LY0s8Rh1VWDW--4" target="9gJAID2LY0s8Rh1VWDW--10">
          <mxGeometry relative="1" as="geometry" />
        </mxCell>
        <mxCell id="9gJAID2LY0s8Rh1VWDW--4" value="" style="rounded=0;whiteSpace=wrap;html=1;fillColor=#ffe6cc;strokeColor=#d79b00;" vertex="1" parent="1">
          <mxGeometry x="720" y="100" width="120" height="60" as="geometry" />
        </mxCell>
        <mxCell id="9gJAID2LY0s8Rh1VWDW--61" style="edgeStyle=orthogonalEdgeStyle;rounded=0;orthogonalLoop=1;jettySize=auto;html=1;entryX=0.25;entryY=0;entryDx=0;entryDy=0;" edge="1" parent="1" source="9gJAID2LY0s8Rh1VWDW--5" target="9gJAID2LY0s8Rh1VWDW--11">
          <mxGeometry relative="1" as="geometry">
            <Array as="points">
              <mxPoint x="930" y="230" />
              <mxPoint x="1055" y="230" />
            </Array>
          </mxGeometry>
        </mxCell>
        <mxCell id="9gJAID2LY0s8Rh1VWDW--70" style="edgeStyle=orthogonalEdgeStyle;rounded=0;orthogonalLoop=1;jettySize=auto;html=1;exitX=0.5;exitY=0;exitDx=0;exitDy=0;entryX=0.5;entryY=0;entryDx=0;entryDy=0;" edge="1" parent="1" source="9gJAID2LY0s8Rh1VWDW--5" target="9gJAID2LY0s8Rh1VWDW--4">
          <mxGeometry relative="1" as="geometry" />
        </mxCell>
        <mxCell id="9gJAID2LY0s8Rh1VWDW--5" value="" style="rounded=0;whiteSpace=wrap;html=1;fillColor=#ffe6cc;strokeColor=#d79b00;" vertex="1" parent="1">
          <mxGeometry x="870" y="102" width="120" height="58" as="geometry" />
        </mxCell>
        <mxCell id="9gJAID2LY0s8Rh1VWDW--66" style="edgeStyle=orthogonalEdgeStyle;rounded=0;orthogonalLoop=1;jettySize=auto;html=1;entryX=0.75;entryY=0;entryDx=0;entryDy=0;" edge="1" parent="1" source="9gJAID2LY0s8Rh1VWDW--6" target="9gJAID2LY0s8Rh1VWDW--11">
          <mxGeometry relative="1" as="geometry">
            <Array as="points">
              <mxPoint x="1308" y="210" />
              <mxPoint x="1145" y="210" />
            </Array>
          </mxGeometry>
        </mxCell>
        <mxCell id="9gJAID2LY0s8Rh1VWDW--6" value="" style="rounded=0;whiteSpace=wrap;html=1;fillColor=#ffe6cc;strokeColor=#d79b00;" vertex="1" parent="1">
          <mxGeometry x="1230" y="100" width="155" height="60" as="geometry" />
        </mxCell>
        <mxCell id="9gJAID2LY0s8Rh1VWDW--63" style="rounded=0;orthogonalLoop=1;jettySize=auto;html=1;" edge="1" parent="1" source="9gJAID2LY0s8Rh1VWDW--7" target="9gJAID2LY0s8Rh1VWDW--11">
          <mxGeometry relative="1" as="geometry" />
        </mxCell>
        <mxCell id="9gJAID2LY0s8Rh1VWDW--7" value="" style="rounded=0;whiteSpace=wrap;html=1;fillColor=#ffe6cc;strokeColor=#d79b00;" vertex="1" parent="1">
          <mxGeometry x="1030" y="106" width="140" height="58" as="geometry" />
        </mxCell>
        <mxCell id="9gJAID2LY0s8Rh1VWDW--8" value="" style="rounded=1;whiteSpace=wrap;html=1;fillColor=#d5e8d4;strokeColor=#82b366;" vertex="1" parent="1">
          <mxGeometry x="100" y="290" width="190" height="70" as="geometry" />
        </mxCell>
        <mxCell id="9gJAID2LY0s8Rh1VWDW--9" value="" style="rounded=1;whiteSpace=wrap;html=1;fillColor=#d5e8d4;strokeColor=#82b366;" vertex="1" parent="1">
          <mxGeometry x="330" y="290" width="220" height="70" as="geometry" />
        </mxCell>
        <mxCell id="9gJAID2LY0s8Rh1VWDW--10" value="" style="rounded=1;whiteSpace=wrap;html=1;fillColor=#d5e8d4;strokeColor=#82b366;" vertex="1" parent="1">
          <mxGeometry x="630" y="290" width="180" height="70" as="geometry" />
        </mxCell>
        <mxCell id="9gJAID2LY0s8Rh1VWDW--67" style="rounded=0;orthogonalLoop=1;jettySize=auto;html=1;exitX=0.5;exitY=1;exitDx=0;exitDy=0;" edge="1" parent="1" source="9gJAID2LY0s8Rh1VWDW--11" target="9gJAID2LY0s8Rh1VWDW--14">
          <mxGeometry relative="1" as="geometry" />
        </mxCell>
        <mxCell id="9gJAID2LY0s8Rh1VWDW--11" value="" style="rounded=1;whiteSpace=wrap;html=1;fillColor=#d5e8d4;strokeColor=#82b366;" vertex="1" parent="1">
          <mxGeometry x="1010" y="290" width="180" height="70" as="geometry" />
        </mxCell>
        <mxCell id="9gJAID2LY0s8Rh1VWDW--12" value="" style="shape=cylinder3;whiteSpace=wrap;html=1;boundedLbl=1;backgroundOutline=1;size=15;fillColor=#f5f5f5;gradientColor=#b3b3b3;strokeColor=#666666;" vertex="1" parent="1">
          <mxGeometry x="120" y="500" width="160" height="80" as="geometry" />
        </mxCell>
        <mxCell id="9gJAID2LY0s8Rh1VWDW--13" value="" style="shape=cylinder3;whiteSpace=wrap;html=1;boundedLbl=1;backgroundOutline=1;size=15;fillColor=#f5f5f5;gradientColor=#b3b3b3;strokeColor=#666666;" vertex="1" parent="1">
          <mxGeometry x="395" y="500" width="160" height="80" as="geometry" />
        </mxCell>
        <mxCell id="9gJAID2LY0s8Rh1VWDW--14" value="" style="shape=cylinder3;whiteSpace=wrap;html=1;boundedLbl=1;backgroundOutline=1;size=15;fillColor=#f5f5f5;gradientColor=#b3b3b3;strokeColor=#666666;" vertex="1" parent="1">
          <mxGeometry x="1020" y="480" width="160" height="80" as="geometry" />
        </mxCell>
        <mxCell id="9gJAID2LY0s8Rh1VWDW--15" value="" style="ellipse;shape=cloud;whiteSpace=wrap;html=1;fillColor=#f5f5f5;gradientColor=#b3b3b3;strokeColor=#666666;" vertex="1" parent="1">
          <mxGeometry x="646" y="490" width="190" height="100" as="geometry" />
        </mxCell>
        <mxCell id="9gJAID2LY0s8Rh1VWDW--16" value="" style="rounded=0;whiteSpace=wrap;html=1;fillColor=#cce5ff;strokeColor=#36393d;" vertex="1" parent="1">
          <mxGeometry x="60" y="710" width="400" height="60" as="geometry" />
        </mxCell>
        <mxCell id="9gJAID2LY0s8Rh1VWDW--17" value="&lt;font style=&quot;font-size: 20px;&quot;&gt;Register&lt;/font&gt;" style="text;html=1;strokeColor=none;fillColor=none;align=center;verticalAlign=middle;whiteSpace=wrap;rounded=0;" vertex="1" parent="1">
          <mxGeometry x="155" y="117.5" width="70" height="35" as="geometry" />
        </mxCell>
        <mxCell id="9gJAID2LY0s8Rh1VWDW--18" value="Log in" style="text;html=1;strokeColor=none;fillColor=none;align=center;verticalAlign=middle;whiteSpace=wrap;rounded=0;fontSize=20;" vertex="1" parent="1">
          <mxGeometry x="400" y="117.5" width="60" height="30" as="geometry" />
        </mxCell>
        <mxCell id="9gJAID2LY0s8Rh1VWDW--51" style="edgeStyle=orthogonalEdgeStyle;rounded=0;orthogonalLoop=1;jettySize=auto;html=1;entryX=0.5;entryY=0;entryDx=0;entryDy=0;" edge="1" parent="1" source="9gJAID2LY0s8Rh1VWDW--19" target="9gJAID2LY0s8Rh1VWDW--10">
          <mxGeometry relative="1" as="geometry" />
        </mxCell>
        <mxCell id="9gJAID2LY0s8Rh1VWDW--19" value="&amp;nbsp;Events Details" style="text;html=1;strokeColor=none;fillColor=none;align=center;verticalAlign=middle;whiteSpace=wrap;rounded=0;fontSize=20;" vertex="1" parent="1">
          <mxGeometry x="565" y="105" width="90" height="45" as="geometry" />
        </mxCell>
        <mxCell id="9gJAID2LY0s8Rh1VWDW--20" value="Event Details" style="text;html=1;strokeColor=none;fillColor=none;align=center;verticalAlign=middle;whiteSpace=wrap;rounded=0;fontSize=20;" vertex="1" parent="1">
          <mxGeometry x="735" y="112.5" width="90" height="40" as="geometry" />
        </mxCell>
        <mxCell id="9gJAID2LY0s8Rh1VWDW--21" value="Add event to wishlist" style="text;html=1;strokeColor=none;fillColor=none;align=center;verticalAlign=middle;whiteSpace=wrap;rounded=0;fontSize=20;" vertex="1" parent="1">
          <mxGeometry x="870" y="113.75" width="110" height="37.5" as="geometry" />
        </mxCell>
        <mxCell id="9gJAID2LY0s8Rh1VWDW--23" value="Wishlist Events" style="text;html=1;strokeColor=none;fillColor=none;align=center;verticalAlign=middle;whiteSpace=wrap;rounded=0;fontSize=20;" vertex="1" parent="1">
          <mxGeometry x="1060" y="116" width="100" height="38" as="geometry" />
        </mxCell>
        <mxCell id="9gJAID2LY0s8Rh1VWDW--24" value="Delete Event from wishlist" style="text;html=1;strokeColor=none;fillColor=none;align=center;verticalAlign=middle;whiteSpace=wrap;rounded=0;fontSize=20;" vertex="1" parent="1">
          <mxGeometry x="1245" y="106" width="125" height="50" as="geometry" />
        </mxCell>
        <mxCell id="9gJAID2LY0s8Rh1VWDW--25" value="User Profile Service" style="text;html=1;align=center;verticalAlign=middle;whiteSpace=wrap;rounded=0;fontSize=20;" vertex="1" parent="1">
          <mxGeometry x="120" y="310" width="150" height="30" as="geometry" />
        </mxCell>
        <mxCell id="9gJAID2LY0s8Rh1VWDW--26" value="User Authentication Service" style="text;html=1;strokeColor=none;fillColor=none;align=center;verticalAlign=middle;whiteSpace=wrap;rounded=0;fontSize=20;" vertex="1" parent="1">
          <mxGeometry x="345" y="300" width="190" height="50" as="geometry" />
        </mxCell>
        <mxCell id="9gJAID2LY0s8Rh1VWDW--28" value="Event Service" style="text;html=1;strokeColor=none;fillColor=none;align=center;verticalAlign=middle;whiteSpace=wrap;rounded=0;fontSize=20;" vertex="1" parent="1">
          <mxGeometry x="655" y="310" width="130" height="40" as="geometry" />
        </mxCell>
        <mxCell id="9gJAID2LY0s8Rh1VWDW--29" value="Wishlist Service" style="text;html=1;strokeColor=none;fillColor=none;align=center;verticalAlign=middle;whiteSpace=wrap;rounded=0;fontSize=20;" vertex="1" parent="1">
          <mxGeometry x="1025" y="310" width="150" height="30" as="geometry" />
        </mxCell>
        <mxCell id="9gJAID2LY0s8Rh1VWDW--30" value="Kafka/RabbitMQ" style="text;html=1;strokeColor=none;fillColor=none;align=center;verticalAlign=middle;whiteSpace=wrap;rounded=0;fontSize=20;" vertex="1" parent="1">
          <mxGeometry x="255" y="725" width="200" height="30" as="geometry" />
        </mxCell>
        <mxCell id="9gJAID2LY0s8Rh1VWDW--31" value="MongoDB/SQL" style="text;html=1;strokeColor=none;fillColor=none;align=center;verticalAlign=middle;whiteSpace=wrap;rounded=0;fontSize=20;" vertex="1" parent="1">
          <mxGeometry x="130" y="540" width="150" height="30" as="geometry" />
        </mxCell>
        <mxCell id="9gJAID2LY0s8Rh1VWDW--32" value="MongoDB/SQL" style="text;html=1;strokeColor=none;fillColor=none;align=center;verticalAlign=middle;whiteSpace=wrap;rounded=0;fontSize=20;" vertex="1" parent="1">
          <mxGeometry x="1025" y="520" width="150" height="30" as="geometry" />
        </mxCell>
        <mxCell id="9gJAID2LY0s8Rh1VWDW--33" value="SQL" style="text;html=1;strokeColor=none;fillColor=none;align=center;verticalAlign=middle;whiteSpace=wrap;rounded=0;fontSize=20;" vertex="1" parent="1">
          <mxGeometry x="425" y="535" width="100" height="30" as="geometry" />
        </mxCell>
        <mxCell id="9gJAID2LY0s8Rh1VWDW--34" value="External API" style="text;html=1;strokeColor=none;fillColor=none;align=center;verticalAlign=middle;whiteSpace=wrap;rounded=0;fontSize=20;" vertex="1" parent="1">
          <mxGeometry x="681" y="525" width="120" height="30" as="geometry" />
        </mxCell>
        <mxCell id="9gJAID2LY0s8Rh1VWDW--37" style="edgeStyle=orthogonalEdgeStyle;rounded=0;orthogonalLoop=1;jettySize=auto;html=1;entryX=0.469;entryY=0.25;entryDx=0;entryDy=0;entryPerimeter=0;" edge="1" parent="1" source="9gJAID2LY0s8Rh1VWDW--8" target="9gJAID2LY0s8Rh1VWDW--12">
          <mxGeometry relative="1" as="geometry" />
        </mxCell>
        <mxCell id="9gJAID2LY0s8Rh1VWDW--42" style="edgeStyle=orthogonalEdgeStyle;rounded=0;orthogonalLoop=1;jettySize=auto;html=1;exitX=0.5;exitY=1;exitDx=0;exitDy=0;" edge="1" parent="1" source="9gJAID2LY0s8Rh1VWDW--30" target="9gJAID2LY0s8Rh1VWDW--30">
          <mxGeometry relative="1" as="geometry" />
        </mxCell>
        <mxCell id="9gJAID2LY0s8Rh1VWDW--44" style="rounded=0;orthogonalLoop=1;jettySize=auto;html=1;exitX=0.183;exitY=0.976;exitDx=0;exitDy=0;edgeStyle=orthogonalEdgeStyle;exitPerimeter=0;" edge="1" parent="1" source="9gJAID2LY0s8Rh1VWDW--8" target="9gJAID2LY0s8Rh1VWDW--16">
          <mxGeometry relative="1" as="geometry">
            <mxPoint x="187.5" y="330" as="sourcePoint" />
            <mxPoint x="180" y="690" as="targetPoint" />
            <Array as="points">
              <mxPoint x="135" y="410" />
              <mxPoint x="90" y="410" />
              <mxPoint x="90" y="620" />
              <mxPoint x="180" y="620" />
            </Array>
          </mxGeometry>
        </mxCell>
        <mxCell id="9gJAID2LY0s8Rh1VWDW--45" style="edgeStyle=orthogonalEdgeStyle;rounded=0;orthogonalLoop=1;jettySize=auto;html=1;exitX=0.75;exitY=0;exitDx=0;exitDy=0;entryX=0.138;entryY=1.024;entryDx=0;entryDy=0;entryPerimeter=0;" edge="1" parent="1" source="9gJAID2LY0s8Rh1VWDW--16" target="9gJAID2LY0s8Rh1VWDW--9">
          <mxGeometry relative="1" as="geometry" />
        </mxCell>
        <mxCell id="9gJAID2LY0s8Rh1VWDW--49" style="edgeStyle=orthogonalEdgeStyle;rounded=0;orthogonalLoop=1;jettySize=auto;html=1;exitX=0.5;exitY=1;exitDx=0;exitDy=0;entryX=0.281;entryY=0.125;entryDx=0;entryDy=0;entryPerimeter=0;" edge="1" parent="1" source="9gJAID2LY0s8Rh1VWDW--9" target="9gJAID2LY0s8Rh1VWDW--13">
          <mxGeometry relative="1" as="geometry" />
        </mxCell>
        <mxCell id="9gJAID2LY0s8Rh1VWDW--50" style="edgeStyle=orthogonalEdgeStyle;rounded=0;orthogonalLoop=1;jettySize=auto;html=1;exitX=0.5;exitY=1;exitDx=0;exitDy=0;entryX=0.456;entryY=0.008;entryDx=0;entryDy=0;entryPerimeter=0;" edge="1" parent="1" source="9gJAID2LY0s8Rh1VWDW--2" target="9gJAID2LY0s8Rh1VWDW--9">
          <mxGeometry relative="1" as="geometry" />
        </mxCell>
        <mxCell id="9gJAID2LY0s8Rh1VWDW--53" style="rounded=0;orthogonalLoop=1;jettySize=auto;html=1;entryX=0.4;entryY=0.1;entryDx=0;entryDy=0;entryPerimeter=0;" edge="1" parent="1" source="9gJAID2LY0s8Rh1VWDW--10" target="9gJAID2LY0s8Rh1VWDW--15">
          <mxGeometry relative="1" as="geometry" />
        </mxCell>
      </root>
    </mxGraphModel>
  </diagram>
</mxfile>
